<svg width="60" height="60" viewBox="0 0 60 60" fill="none" xmlns="http://www.w3.org/2000/svg">
<path d="M19.8873 18.9782L19.5226 20.4332L19.8873 18.9782ZM25.5115 15.731L24.0691 15.3194L25.5115 15.731ZM15.3981 26.7537L16.4758 25.7103L15.3981 26.7537ZM15.3981 33.248L14.3204 32.2047H14.3204L15.3981 33.248ZM19.8873 41.0235L20.252 42.4785L19.8873 41.0235ZM25.5115 44.2707L24.0691 44.6823L25.5115 44.2707ZM34.4899 44.2707L35.9323 44.6823L34.4899 44.2707ZM40.1142 41.0235L40.4789 39.5685L40.1142 41.0235ZM44.6033 33.248L43.5256 34.2914L44.6033 33.248ZM44.6033 26.7537L43.5256 25.7103L44.6033 26.7537ZM40.1142 18.9782L39.7495 17.5232L40.1142 18.9782ZM34.4899 15.731L35.9323 15.3194L34.4899 15.731ZM19.5226 20.4332C22.7516 21.2426 26.0404 19.3438 26.954 16.1427L24.0691 15.3194C23.5999 16.9636 21.9106 17.9389 20.252 17.5232L19.5226 20.4332ZM16.4758 25.7103C14.2586 23.4202 16.4306 19.6581 19.5226 20.4332L20.252 17.5232C14.2325 16.0143 10.0039 23.3384 14.3204 27.797L16.4758 25.7103ZM16.4758 34.2914C18.7913 31.8996 18.7913 28.1021 16.4758 25.7103L14.3204 27.797C15.5097 29.0255 15.5097 30.9762 14.3204 32.2047L16.4758 34.2914ZM19.5226 39.5685C16.4306 40.3435 14.2586 36.5815 16.4758 34.2914L14.3204 32.2047C10.0039 36.6633 14.2325 43.9874 20.252 42.4785L19.5226 39.5685ZM26.954 43.859C26.0404 40.6579 22.7516 38.7591 19.5226 39.5685L20.252 42.4785C21.9106 42.0627 23.5999 43.038 24.0691 44.6823L26.954 43.859ZM33.0475 43.859C32.1727 46.9242 27.8287 46.9242 26.954 43.859L24.0691 44.6823C25.7722 50.6498 34.2293 50.6498 35.9323 44.6823L33.0475 43.859ZM40.4789 39.5685C37.2498 38.7591 33.9611 40.6579 33.0475 43.859L35.9323 44.6823C36.4016 43.038 38.0909 42.0627 39.7495 42.4785L40.4789 39.5685ZM43.5256 34.2914C45.7428 36.5815 43.5708 40.3435 40.4789 39.5685L39.7495 42.4785C45.769 43.9874 49.9975 36.6633 45.681 32.2047L43.5256 34.2914ZM43.5256 25.7103C41.2102 28.1021 41.2102 31.8996 43.5256 34.2914L45.681 32.2047C44.4917 30.9762 44.4917 29.0255 45.681 27.797L43.5256 25.7103ZM40.4789 20.4332C43.5708 19.6581 45.7428 23.4202 43.5256 25.7103L45.681 27.797C49.9975 23.3384 45.769 16.0143 39.7495 17.5232L40.4789 20.4332ZM33.0475 16.1427C33.9611 19.3438 37.2498 21.2426 40.4789 20.4332L39.7495 17.5232C38.0909 17.9389 36.4016 16.9636 35.9323 15.3194L33.0475 16.1427ZM35.9323 15.3194C34.2293 9.35188 25.7722 9.35188 24.0691 15.3194L26.954 16.1427C27.8287 13.0774 32.1727 13.0774 33.0475 16.1427L35.9323 15.3194ZM23.5007 30.0008C23.5007 33.5907 26.4109 36.5008 30.0007 36.5008V33.5008C28.0677 33.5008 26.5007 31.9338 26.5007 30.0008H23.5007ZM30.0007 36.5008C33.5906 36.5008 36.5007 33.5907 36.5007 30.0008H33.5007C33.5007 31.9338 31.9337 33.5008 30.0007 33.5008V36.5008ZM36.5007 30.0008C36.5007 26.411 33.5906 23.5008 30.0007 23.5008V26.5008C31.9337 26.5008 33.5007 28.0678 33.5007 30.0008H36.5007ZM30.0007 23.5008C26.4109 23.5008 23.5007 26.411 23.5007 30.0008H26.5007C26.5007 28.0678 28.0677 26.5008 30.0007 26.5008V23.5008Z" fill="#434343"/>
</svg>
