<svg width="32" height="32" viewBox="0 0 32 32" fill="none" xmlns="http://www.w3.org/2000/svg">
<path d="M13.8445 2.13916L26.0876 3.47217L26.1941 3.48389L26.2966 3.51709C28.0407 4.07423 28.7086 5.29807 28.7087 6.32959V25.0659C28.7087 25.8689 28.5545 26.5668 28.239 27.1567C27.9205 27.752 27.4702 28.1762 26.9773 28.4771C26.053 29.0411 24.9077 29.1972 24.1775 29.3188L24.1208 29.3276L24.0642 29.3315L19.531 29.5981H19.5232L14.3406 29.8647L14.3123 29.8667H14.2849C12.9726 29.8666 11.9713 29.4944 11.3005 28.8159C10.6407 28.1482 10.4363 27.3196 10.4363 26.6665H5.93726C4.94056 26.6665 4.20457 26.2468 3.74878 25.6401C3.3319 25.0851 3.20093 24.4462 3.20093 23.9995V7.99951C3.20108 6.99261 3.66544 6.27175 4.28784 5.84229C4.85395 5.45167 5.49721 5.33351 5.93726 5.3335H10.4363V5.06592C10.4364 4.17735 10.7387 3.37227 11.4265 2.8208C12.0729 2.30271 12.9081 2.13332 13.7292 2.1333H13.7869L13.8445 2.13916ZM13.6794 4.26709C13.1427 4.27402 12.8768 4.39347 12.7615 4.48584C12.6845 4.54751 12.5692 4.67549 12.5691 5.06592V26.6665C12.5691 26.902 12.6437 27.1403 12.8181 27.3169C12.9816 27.4821 13.3693 27.7299 14.2742 27.7319L19.406 27.4683L23.8787 27.2046C24.7231 27.0638 25.3804 26.9521 25.866 26.6558C26.083 26.5233 26.2432 26.3637 26.3572 26.1509C26.4739 25.9326 26.575 25.5959 26.575 25.0659V6.32959C26.5749 6.28063 26.5585 6.16874 26.4587 6.0376C26.368 5.91847 26.1683 5.73296 25.7332 5.57959L13.6794 4.26709ZM5.93726 7.46631C5.82077 7.46632 5.62827 7.5088 5.49878 7.59814C5.44554 7.63496 5.41215 7.67318 5.3894 7.71533C5.36765 7.75575 5.33381 7.8395 5.33374 7.99951V23.9995C5.33374 24.0859 5.37022 24.2473 5.45386 24.3589C5.48812 24.4045 5.52956 24.4405 5.58569 24.4683C5.64197 24.4961 5.74882 24.5337 5.93726 24.5337H10.4363V7.46631H5.93726Z" fill="#FAC9FF"/>
<path d="M15.4667 17.0667V13.8667" stroke="#FAC9FF" stroke-width="2.13333" stroke-miterlimit="10" stroke-linecap="round" stroke-linejoin="round"/>
</svg>
