<svg width="60" height="60" viewBox="0 0 60 60" fill="none" xmlns="http://www.w3.org/2000/svg">
<path d="M21.25 47.3729H20C10 47.3729 5 44.8804 5 32.4177V19.9551C5 9.98504 10 5 20 5H40C50 5 55 9.98504 55 19.9551V32.4177C55 42.3878 50 47.3729 40 47.3729H38.75C37.975 47.3729 37.225 47.7468 36.75 48.3699L33 53.3549C31.35 55.5484 28.65 55.5484 27 53.3549L23.25 48.3699C22.85 47.8215 21.925 47.3729 21.25 47.3729Z" stroke="#5D5D5D" stroke-width="4" stroke-miterlimit="10" stroke-linecap="round" stroke-linejoin="round"/>
<path d="M25 23V31" stroke="#5D5D5D" stroke-width="4" stroke-linecap="round" stroke-linejoin="round"/>
<path d="M35 23V31" stroke="#5D5D5D" stroke-width="4" stroke-linecap="round" stroke-linejoin="round"/>
</svg>
