<svg width="22" height="24" viewBox="0 0 22 24" fill="none" xmlns="http://www.w3.org/2000/svg">
<path d="M20.1934 1.9668C21.3614 2.34013 21.6542 3.07149 21.6543 3.53809V19.9326C21.6543 21.5658 20.8021 22.2666 19.4023 22.5L14.502 22.9668L9.9668 23.2002C8.01908 23.2002 7.53225 22.1108 7.53223 21.333V2.43262C7.53243 1.31308 8.26253 0.799926 9.47949 0.799805L20.1934 1.9668ZM6.10059 20.3994H1.72852C0.560025 20.3994 0.267681 19.4667 0.267578 19V5C0.267578 3.88 1.24156 3.59961 1.72852 3.59961H6.10059V20.3994ZM11.4697 9.25781C10.9866 9.25781 10.5949 9.64969 10.5947 10.1328V13.8662C10.5948 14.3494 10.9865 14.7412 11.4697 14.7412C11.9528 14.7411 12.3447 14.3493 12.3447 13.8662V10.1328C12.3446 9.64978 11.9528 9.25795 11.4697 9.25781Z" fill="white"/>
</svg>
