<svg width="60" height="60" viewBox="0 0 60 60" fill="none" xmlns="http://www.w3.org/2000/svg">
<path d="M25.1748 7.05017C27.8248 4.9252 32.1502 4.92466 34.8252 7.07458L52.1504 20.9252C54.0752 22.4752 55.3247 25.7497 54.9248 28.1996L51.6006 48.1C51.0006 51.625 47.575 54.5248 44 54.5248H16C12.4001 54.5247 9.00046 51.6499 8.40039 48.1L5.0752 28.1996C4.65033 25.7496 5.90065 22.4751 7.85059 20.9252L25.1748 7.05017ZM30 21.0004C28.8954 21.0004 28 21.8958 28 23.0004V42.0004C28.0002 43.1048 28.8956 44.0004 30 44.0004C31.1044 44.0003 31.9998 43.1048 32 42.0004V23.0004C32 21.8958 31.1046 21.0004 30 21.0004ZM20 26.0004C18.8954 26.0004 18 26.8958 18 28.0004V37.8578C18.0004 38.9621 18.8956 39.8578 20 39.8578C21.1043 39.8578 21.9996 38.962 22 37.8578V28.0004C22 26.8958 21.1046 26.0004 20 26.0004ZM40 26.0004C38.8954 26.0004 38 26.8958 38 28.0004V37.8578C38.0004 38.9621 38.8956 39.8578 40 39.8578C41.1043 39.8578 41.9996 38.962 42 37.8578V28.0004C42 26.8958 41.1046 26.0004 40 26.0004Z" fill="url(#paint0_linear_41_2802)"/>
<defs>
<linearGradient id="paint0_linear_41_2802" x1="4.99219" y1="29.9921" x2="54.9993" y2="29.9921" gradientUnits="userSpaceOnUse">
<stop stop-color="#EC09F8"/>
<stop offset="1" stop-color="#B732FF"/>
</linearGradient>
</defs>
</svg>
