<svg width="40" height="40" viewBox="0 0 40 40" fill="black" xmlns="http://www.w3.org/2000/svg">
<path d="M5.12451 19.9878C5.12451 20.6781 5.68416 21.2378 6.37451 21.2378C7.06487 21.2378 7.62451 20.6781 7.62451 19.9878H5.12451ZM34.875 19.9878C34.875 19.2974 34.3154 18.7378 33.625 18.7378C32.9346 18.7378 32.375 19.2974 32.375 19.9878H34.875ZM10.5947 28.0313C10.1457 27.5068 9.35663 27.4457 8.83221 27.8946C8.30778 28.3436 8.24662 29.1327 8.69558 29.6571L10.5947 28.0313ZM29.4048 11.9443C29.8538 12.4687 30.6429 12.5299 31.1673 12.0809C31.6917 11.6319 31.7529 10.8429 31.3039 10.3184L29.4048 11.9443ZM33.0438 4.99442C33.0407 4.30407 32.4786 3.74693 31.7882 3.75001C31.0979 3.75309 30.5407 4.31523 30.5438 5.00558L33.0438 4.99442ZM31.8059 7.70558L33.0558 7.70001V7.7L31.8059 7.70558ZM26.7918 12.7197L26.7862 13.9697L26.7918 12.7197ZM24.0918 11.4576C23.4014 11.4545 22.8393 12.0117 22.8362 12.702C22.8331 13.3924 23.3903 13.9545 24.0806 13.9576L24.0918 11.4576ZM31.2492 11.68L32.2377 12.445V12.445L31.2492 11.68ZM30.7662 12.163L31.5312 13.1516L31.5312 13.1516L30.7662 12.163ZM6.84382 34.8716C6.8469 35.5619 7.40903 36.119 8.09938 36.116C8.78973 36.1129 9.34687 35.5507 9.34379 34.8604L6.84382 34.8716ZM8.08173 32.1604L6.83175 32.166L8.08173 32.1604ZM13.0958 27.1463L13.1014 25.8963H13.1014L13.0958 27.1463ZM15.7958 28.4084C16.4862 28.4114 17.0483 27.8543 17.0514 27.164C17.0545 26.4736 16.4973 25.9115 15.807 25.9084L15.7958 28.4084ZM8.63839 28.186L7.64985 27.4209L7.64984 27.4209L8.63839 28.186ZM9.1214 27.703L8.35637 26.7144L8.35637 26.7144L9.1214 27.703ZM19.9998 6.36252V5.11252C11.7844 5.11252 5.12451 11.7724 5.12451 19.9878H6.37451H7.62451C7.62451 13.1531 13.1651 7.61252 19.9998 7.61252V6.36252ZM19.9998 33.613V34.863C28.2151 34.863 34.875 28.2031 34.875 19.9878H33.625H32.375C32.375 26.8224 26.8344 32.363 19.9998 32.363V33.613ZM9.64514 28.8442L8.69558 29.6571C11.4219 32.8416 15.4754 34.863 19.9998 34.863V33.613V32.363C16.2364 32.363 12.8663 30.6847 10.5947 28.0313L9.64514 28.8442ZM30.3544 11.1314L31.3039 10.3184C28.5776 7.1339 24.5241 5.11252 19.9998 5.11252V6.36252V7.61252C23.7631 7.61252 27.1332 9.29087 29.4048 11.9443L30.3544 11.1314ZM31.7938 5L30.5438 5.00558L30.5559 7.71116L31.8059 7.70558L33.0558 7.7L33.0438 4.99442L31.7938 5ZM26.7918 12.7197L26.7973 11.4697L24.0918 11.4576L24.0862 12.7076L24.0806 13.9576L26.7862 13.9697L26.7918 12.7197ZM31.8059 7.70558L30.5559 7.71116C30.5608 8.81938 30.5622 9.54491 30.5027 10.0895C30.446 10.6089 30.3472 10.8031 30.2607 10.915L31.2492 11.68L32.2377 12.445C32.7223 11.8189 32.9067 11.1048 32.9879 10.3609C33.0664 9.64214 33.0605 8.74944 33.0558 7.70001L31.8059 7.70558ZM26.7918 12.7197L26.7862 13.9697C27.8356 13.9743 28.7283 13.9802 29.4471 13.9017C30.1909 13.8205 30.9051 13.6361 31.5312 13.1516L30.7662 12.163L30.0012 11.1745C29.8893 11.261 29.6951 11.3598 29.1757 11.4165C28.6311 11.476 27.9056 11.4746 26.7973 11.4697L26.7918 12.7197ZM31.2492 11.68L30.2607 10.915C30.1855 11.0121 30.0983 11.0993 30.0012 11.1745L30.7662 12.163L31.5312 13.1516C31.7957 12.9469 32.0331 12.7095 32.2377 12.445L31.2492 11.68ZM8.09381 34.866L9.34379 34.8604L9.33172 32.1548L8.08173 32.1604L6.83175 32.166L6.84382 34.8716L8.09381 34.866ZM13.0958 27.1463L13.0902 28.3963L15.7958 28.4084L15.8014 27.1584L15.807 25.9084L13.1014 25.8963L13.0958 27.1463ZM8.08173 32.1604L9.33172 32.1548C9.32678 31.0466 9.32543 30.3211 9.3849 29.7765C9.44163 29.2571 9.54038 29.0628 9.62694 28.951L8.63839 28.186L7.64984 27.4209C7.1653 28.047 6.98092 28.7612 6.89968 29.5051C6.82119 30.2238 6.82706 31.1165 6.83175 32.166L8.08173 32.1604ZM13.0958 27.1463L13.1014 25.8963C12.052 25.8916 11.1593 25.8858 10.4405 25.9642C9.69664 26.0455 8.98248 26.2299 8.35637 26.7144L9.1214 27.703L9.88643 28.6915C9.99828 28.6049 10.1925 28.5062 10.7119 28.4495C11.2565 28.39 11.982 28.3913 13.0902 28.3963L13.0958 27.1463ZM8.63839 28.186L9.62694 28.951C9.70212 28.8539 9.78929 28.7667 9.88643 28.6915L9.1214 27.703L8.35637 26.7144C8.0919 26.9191 7.85452 27.1565 7.64985 27.4209L8.63839 28.186Z" fill="white"/>
</svg>
