<svg width="60" height="60" viewBox="0 0 60 60" fill="none" xmlns="http://www.w3.org/2000/svg">
<path d="M37.2227 9.33034L31.9194 14.6336C31.1206 15.4324 30.276 16.4825 30 17.4998C29.724 16.4825 29.2715 15.4324 28.4727 14.6337L23.1694 9.33037C20.7286 6.8896 16.7714 6.8896 14.3306 9.33037C12.129 11.532 12.002 15.0563 13.7722 17.4998L30 17.4998L11.25 17.4998C7.79822 17.4998 5 20.298 5 23.7498C5 25.4532 5.68145 26.9974 6.78661 28.1248H29.9879L30 28.1248L30.0121 28.1248H53.2134C54.3185 26.9974 55 25.4532 55 23.7498C55 20.298 52.2018 17.4998 48.75 17.4998L46.0616 17.4998L46.7087 17.4998C48.4789 15.0563 48.2631 11.532 46.0615 9.33034C43.6207 6.88956 39.6635 6.88956 37.2227 9.33034Z" fill="url(#paint0_linear_553_19006)"/>
<path d="M7.45262 32.0888L7.44488 31.7859H28.125V54.9109H26.25C20.4257 54.9109 17.5136 54.9109 15.2165 53.9141C12.1536 52.585 9.72019 50.0357 8.45152 46.827C7.50009 44.4207 7.50009 41.3687 7.50009 35.2681C7.50009 33.9309 7.47425 32.9282 7.45262 32.0888Z" fill="url(#paint1_linear_553_19006)"/>
<path d="M44.7836 53.9141C42.4864 54.9109 39.5743 54.9109 33.75 54.9109H31.875V31.7859H52.4858C52.5 32.6863 52.5 33.7663 52.5 35.2681C52.5 41.3697 52.5 44.4205 51.5485 46.827C50.2798 50.0357 47.8464 52.585 44.7836 53.9141Z" fill="url(#paint2_linear_553_19006)"/>
<defs>
<linearGradient id="paint0_linear_553_19006" x1="5" y1="31.2053" x2="55" y2="31.2053" gradientUnits="userSpaceOnUse">
<stop stop-color="#EC09F8"/>
<stop offset="1" stop-color="#B732FF"/>
</linearGradient>
<linearGradient id="paint1_linear_553_19006" x1="5" y1="31.2053" x2="55" y2="31.2053" gradientUnits="userSpaceOnUse">
<stop stop-color="#EC09F8"/>
<stop offset="1" stop-color="#B732FF"/>
</linearGradient>
<linearGradient id="paint2_linear_553_19006" x1="5" y1="31.2053" x2="55" y2="31.2053" gradientUnits="userSpaceOnUse">
<stop stop-color="#EC09F8"/>
<stop offset="1" stop-color="#B732FF"/>
</linearGradient>
</defs>
</svg>
