<svg width="70" height="70" viewBox="0 0 70 70" fill="none" xmlns="http://www.w3.org/2000/svg">
<path d="M42.9658 9.60352C43.7459 9.60352 44.1362 9.60334 44.4961 9.64453C46.3748 9.85972 48.0601 10.9012 49.0928 12.4854C49.2907 12.7889 49.4654 13.1379 49.8145 13.8359L52.4199 19.0479C53.4169 21.0418 55.4553 22.3016 57.6846 22.3018C60.9353 22.3018 63.5712 24.9368 63.5713 28.1875V44.0703C63.5713 50.4346 63.5711 53.6172 62.1113 55.9404C61.3501 57.1518 60.3256 58.1763 59.1143 58.9375C56.7911 60.3972 53.6084 60.3965 47.2441 60.3965H22.7549C16.3906 60.3965 13.208 60.3973 10.8848 58.9375C9.67336 58.1763 8.6489 57.1518 7.8877 55.9404C6.42793 53.6172 6.42773 50.4346 6.42773 44.0703V28.1875C6.42783 24.9368 9.06375 22.3018 12.3145 22.3018C14.5438 22.3017 16.5821 21.0419 17.5791 19.0479L20.1846 13.8359C20.5336 13.1379 20.7084 12.7889 20.9062 12.4854C21.9389 10.9012 23.6242 9.85972 25.5029 9.64453C25.8629 9.60332 26.2531 9.60352 27.0332 9.60352H42.9658ZM34.999 25.4756C27.9862 25.4758 22.3011 31.1611 22.3008 38.1738C22.3008 45.1869 27.986 50.8719 34.999 50.8721C42.0122 50.8721 47.6973 45.187 47.6973 38.1738C47.6969 31.161 42.012 25.4756 34.999 25.4756ZM34.999 30.5547C39.2067 30.5547 42.6178 33.9662 42.6182 38.1738C42.6182 42.3817 39.2069 45.793 34.999 45.793C30.7913 45.7928 27.3799 42.3816 27.3799 38.1738C27.3802 33.9663 30.7915 30.5549 34.999 30.5547Z" fill="url(#paint0_linear_1563_16564)"/>
<defs>
<linearGradient id="paint0_linear_1563_16564" x1="6.42773" y1="35" x2="63.5713" y2="35" gradientUnits="userSpaceOnUse">
<stop stop-color="#B732FF"/>
<stop offset="1" stop-color="#EC09F8"/>
</linearGradient>
</defs>
</svg>
