<svg width="30" height="30" viewBox="0 0 30 30" fill="none" xmlns="http://www.w3.org/2000/svg">
<path d="M15 30C23.2843 30 30 23.2843 30 15C30 6.71573 23.2843 0 15 0C6.71573 0 0 6.71573 0 15C0 23.2843 6.71573 30 15 30Z" fill="url(#paint0_linear_1145_13436)"/>
<path d="M15 0.986842C22.7171 0.986842 29.0132 7.26316 29.0132 15C29.0132 22.7368 22.7171 29.0132 15 29.0132C7.2829 29.0132 0.986842 22.7171 0.986842 15C0.986842 7.2829 7.26316 0.986842 15 0.986842ZM15 0C6.71053 0 0 6.71053 0 15C0 23.2895 6.71053 30 15 30C23.2895 30 30 23.2895 30 15C30 6.71053 23.2895 0 15 0Z" fill="url(#paint1_linear_1145_13436)"/>
<path d="M14.9996 27.1384C8.30882 27.1384 2.86145 21.691 2.86145 15.0002C2.86145 8.30943 8.30882 2.86206 14.9996 2.86206C21.6904 2.86206 27.1378 8.30943 27.1378 15.0002C27.1378 21.691 21.6904 27.1384 14.9996 27.1384ZM14.9996 3.45417C8.62461 3.45417 3.45356 8.62522 3.45356 15.0002C3.45356 21.3752 8.62461 26.5463 14.9996 26.5463C21.3746 26.5463 26.5457 21.3752 26.5457 15.0002C26.5457 8.62522 21.3746 3.45417 14.9996 3.45417Z" fill="url(#paint2_linear_1145_13436)"/>
<path d="M14.3214 7.82361V6.22461H15.6084V7.82361C16.7784 7.90161 17.7144 8.23311 18.3969 8.77911C19.1964 9.40311 19.6839 10.4366 19.8789 11.8601H17.6559C17.5389 11.0411 17.2464 10.4756 16.7784 10.1441C16.4859 9.92961 16.0959 9.79311 15.6084 9.73461V14.0246C17.1489 14.5901 17.9874 14.9021 18.1044 14.9801C19.4499 15.7406 20.1324 16.8326 20.1324 18.2561C20.1324 19.6406 19.6059 20.6741 18.5529 21.3761C17.7729 21.8831 16.7979 22.1756 15.6084 22.2536V23.9696H14.3214V22.2536C12.9954 22.1561 11.9814 21.7856 11.2794 21.1226C10.4604 20.3426 9.99237 19.1531 9.87537 17.5541H12.1374C12.2154 18.5681 12.4689 19.3091 12.9174 19.7381C13.2489 20.0501 13.7169 20.2451 14.3214 20.3231V15.7601L12.0789 14.9411C10.7139 14.2001 10.0509 13.1081 10.0509 11.6651C10.0509 10.3781 10.5384 9.40311 11.5329 8.72061C12.2739 8.19411 13.1904 7.90161 14.3214 7.82361ZM15.6084 16.2281V20.3231C16.1544 20.2451 16.6419 20.0891 17.0319 19.8356C17.5779 19.4846 17.8509 18.9776 17.8509 18.3341C17.8509 17.4566 17.1684 16.7741 15.8229 16.3061C15.7449 16.2671 15.6864 16.2476 15.6084 16.2281ZM14.3214 13.5371V9.71511C13.8144 9.77361 13.4049 9.91011 13.1124 10.1051C12.5859 10.4171 12.3324 10.9436 12.3324 11.6651C12.3324 12.4061 12.9954 13.0301 14.3214 13.5371Z" fill="white"/>
<defs>
<linearGradient id="paint0_linear_1145_13436" x1="4.39342" y1="4.39342" x2="25.6066" y2="25.6066" gradientUnits="userSpaceOnUse">
<stop stop-color="#FFCA28"/>
<stop offset="1" stop-color="#FF7043"/>
</linearGradient>
<linearGradient id="paint1_linear_1145_13436" x1="5.35618" y1="3.50704" x2="24.6438" y2="26.493" gradientUnits="userSpaceOnUse">
<stop stop-color="#FFECB3"/>
<stop offset="0.055" stop-color="#FEE6AA"/>
<stop offset="0.145" stop-color="#FDD792"/>
<stop offset="0.258" stop-color="#FBBE6A"/>
<stop offset="0.389" stop-color="#F89C33"/>
<stop offset="0.5" stop-color="#F57C00"/>
<stop offset="0.613" stop-color="#F67A09"/>
<stop offset="0.798" stop-color="#FA7621"/>
<stop offset="1" stop-color="#FF7043"/>
</linearGradient>
<linearGradient id="paint2_linear_1145_13436" x1="4.49053" y1="8.93272" x2="25.5087" y2="21.0677" gradientUnits="userSpaceOnUse">
<stop stop-color="#FFB300"/>
<stop offset="1" stop-color="#F4511E"/>
</linearGradient>
</defs>
</svg>
