<svg width="60" height="60" viewBox="0 0 60 60" fill="none" xmlns="http://www.w3.org/2000/svg">
<path d="M30.0019 6.04883C16.8282 6.04883 6.0498 17.0189 6.0498 30.4321V49.3303C6.0498 52.3482 7.84621 53.1626 10.0498 51.1506L12.445 48.971C13.3312 48.1566 14.7684 48.1566 15.6546 48.971L20.445 53.3542C21.3312 54.1686 22.7684 54.1686 23.6546 53.3542L28.445 48.971C29.3312 48.1566 30.7684 48.1566 31.6546 48.971L36.445 53.3542C37.3312 54.1686 38.7684 54.1686 39.6546 53.3542L44.445 48.971C45.3312 48.1566 46.7684 48.1566 47.6546 48.971L50.0498 51.1506C52.2534 53.1626 54.0498 52.3482 54.0498 49.3303V30.4321C53.954 17.0189 43.1756 6.04883 30.0019 6.04883ZM30.0019 17.1147C33.1396 17.1147 35.7025 19.6776 35.7025 22.8153C35.7025 25.953 33.1396 28.5159 30.0019 28.5159C26.8642 28.5159 24.3013 25.953 24.3013 22.8153C24.3013 19.6776 26.8642 17.1147 30.0019 17.1147ZM40.6606 36.2285C37.5229 38.5758 33.7624 39.7494 30.0019 39.7494C26.2414 39.7494 22.4809 38.5758 19.3432 36.2285C18.5528 35.6297 18.3851 34.5039 18.9839 33.7135C19.5827 32.9231 20.7085 32.7554 21.4989 33.3542C26.5049 37.1147 33.4989 37.1147 38.5049 33.3542C39.2953 32.7554 40.4211 32.9231 41.0199 33.7135C41.6187 34.5039 41.451 35.6297 40.6606 36.2285Z" fill="url(#paint0_linear_2998_11342)"/>
<defs>
<linearGradient id="paint0_linear_2998_11342" x1="30.0498" y1="6.04883" x2="30.0498" y2="53.965" gradientUnits="userSpaceOnUse">
<stop stop-color="#FF59F9"/>
<stop offset="1" stop-color="#5E76EA"/>
</linearGradient>
</defs>
</svg>
