<svg width="60" height="60" viewBox="0 0 60 60" fill="none" xmlns="http://www.w3.org/2000/svg">
<path d="M42.5 5C49.3999 5 54.9999 10.5777 55 17.4561V34.915C55 41.7934 49.4 47.3711 42.5 47.3711H38.75C37.975 47.3711 37.225 47.7468 36.75 48.3721L33 53.3496C31.35 55.5503 28.65 55.5503 27 53.3496L23.25 48.3721C22.825 47.8218 21.925 47.3711 21.25 47.3711H17.5C10.6 47.3711 5.00004 41.7934 5 34.915V17.4561C5.00009 10.5777 10.6001 5 17.5 5H42.5ZM24 20C22.8954 20 22 20.8954 22 22V32C22 33.1046 22.8954 34 24 34C25.1046 34 26 33.1046 26 32V22C26 20.8954 25.1046 20 24 20ZM36 20C34.8954 20 34 20.8954 34 22V32C34 33.1046 34.8954 34 36 34C37.1046 34 38 33.1046 38 32V22C38 20.8954 37.1046 20 36 20Z" fill="url(#paint0_linear_45_3060)"/>
<defs>
<linearGradient id="paint0_linear_45_3060" x1="5" y1="30.0001" x2="55" y2="30.0001" gradientUnits="userSpaceOnUse">
<stop stop-color="#B732FF"/>
<stop offset="1" stop-color="#EC09F8"/>
</linearGradient>
</defs>
</svg>
