<svg width="60" height="60" viewBox="0 0 60 60" fill="none" xmlns="http://www.w3.org/2000/svg">
<path d="M15.2165 53.9141L14.4203 55.7488L15.2165 53.9141ZM8.45151 46.827L6.59161 47.5624L8.45151 46.827ZM51.5485 46.827L53.4084 47.5624L51.5485 46.827ZM44.7835 53.9141L45.5797 55.7488L44.7835 53.9141ZM7.5 28.6609L9.49215 28.838L9.59003 27.7363L8.70899 27.0677L7.5 28.6609ZM48.75 17.4109V15.4109H48.75L48.75 17.4109ZM31.9194 14.6336L33.3336 16.0479L31.9194 14.6336ZM37.2227 9.33034L38.6369 10.7446V10.7446L37.2227 9.33034ZM46.0616 9.33034L44.6473 10.7446V10.7446L46.0616 9.33034ZM46.7087 17.4109L46.7088 19.4109L47.7295 19.4108L48.3284 18.5842L46.7087 17.4109ZM28.4728 14.6337L27.0585 16.0479L28.4728 14.6337ZM23.1695 9.33037L21.7552 10.7446V10.7446L23.1695 9.33037ZM14.3306 9.33037L15.7448 10.7446V10.7446L14.3306 9.33037ZM30 52.4109H32H30ZM7.41881 28.5993L6.19178 30.1787L7.41881 28.5993ZM52.3385 28.7787L51.1888 27.1421L52.3385 28.7787ZM26.25 54.9109V52.9109C23.3092 52.9109 21.2085 52.9097 19.5531 52.7914C17.9176 52.6745 16.868 52.4506 16.0126 52.0794L15.2165 53.9141L14.4203 55.7488C15.8621 56.3744 17.4171 56.6489 19.268 56.7812C21.099 56.9121 23.3665 56.9109 26.25 56.9109V54.9109ZM7.50008 35.2681H5.50008C5.50008 38.2928 5.49907 40.6569 5.62321 42.5632C5.7484 44.4857 6.00697 46.0837 6.59161 47.5624L8.45151 46.827L10.3114 46.0916C9.94454 45.1637 9.7274 44.0331 9.61475 42.3032C9.50105 40.5571 9.50008 38.345 9.50008 35.2681H7.50008ZM15.2165 53.9141L16.0126 52.0794C13.4539 50.9691 11.3925 48.8258 10.3114 46.0916L8.45151 46.827L6.59161 47.5624C8.0479 51.2456 10.8533 54.201 14.4203 55.7488L15.2165 53.9141ZM52.5 35.2681H50.5C50.5 38.345 50.499 40.5571 50.3853 42.3032C50.2726 44.0331 50.0555 45.1637 49.6886 46.0916L51.5485 46.827L53.4084 47.5624C53.993 46.0837 54.2516 44.4857 54.3768 42.5632C54.501 40.6569 54.5 38.2927 54.5 35.2681H52.5ZM33.75 54.9109V56.9109C36.6335 56.9109 38.901 56.9121 40.732 56.7812C42.5829 56.6489 44.1379 56.3744 45.5797 55.7488L44.7835 53.9141L43.9874 52.0794C43.132 52.4506 42.0824 52.6745 40.4469 52.7914C38.7915 52.9097 36.6908 52.9109 33.75 52.9109V54.9109ZM51.5485 46.827L49.6886 46.0916C48.6075 48.8258 46.5461 50.9691 43.9874 52.0794L44.7835 53.9141L45.5797 55.7488C49.1467 54.201 51.9521 51.2456 53.4084 47.5624L51.5485 46.827ZM7.50008 35.2681H9.50008C9.50008 31.5694 9.32949 30.6687 9.49215 28.838L7.5 28.6609L5.50785 28.4839C5.32683 30.5213 5.50008 32.069 5.50008 35.2681H7.50008ZM48.75 17.4109V19.4109C51.0972 19.4109 53 21.3137 53 23.6609H55H57C57 19.1046 53.3064 15.4109 48.75 15.4109V17.4109ZM11.25 17.4109V15.4109C6.69365 15.4109 3 19.1046 3 23.6609H5H7C7 21.3137 8.90279 19.4109 11.25 19.4109V17.4109ZM31.9194 14.6336L33.3336 16.0479L38.6369 10.7446L37.2227 9.33034L35.8085 7.91612L30.5052 13.2194L31.9194 14.6336ZM37.2227 9.33034L38.6369 10.7446C40.2967 9.08482 42.9876 9.08482 44.6473 10.7446L46.0616 9.33034L47.4758 7.91613C44.2539 4.6943 39.0303 4.6943 35.8085 7.91613L37.2227 9.33034ZM31.9194 14.6336L30.5052 13.2194C29.7223 14.0023 28.5006 15.299 28.0698 16.8873L30 17.4109L31.9302 17.9346C32.0513 17.4883 32.519 16.8625 33.3336 16.0479L31.9194 14.6336ZM46.0616 9.33034L44.6473 10.7446C46.1431 12.2403 46.2918 14.5773 45.0891 16.2375L46.7087 17.4109L48.3284 18.5842C50.666 15.3576 50.3833 10.8236 47.4758 7.91612L46.0616 9.33034ZM28.4728 14.6337L29.887 13.2195L24.5837 7.91616L23.1695 9.33037L21.7552 10.7446L27.0585 16.0479L28.4728 14.6337ZM23.1695 9.33037L24.5837 7.91616C21.3618 4.69433 16.1382 4.69433 12.9164 7.91616L14.3306 9.33037L15.7448 10.7446C17.4046 9.08486 20.0955 9.08486 21.7552 10.7446L23.1695 9.33037ZM28.4728 14.6337L27.0585 16.0479C27.5415 16.5308 27.8557 17.1453 28.0698 17.9346L30 17.4109L31.9302 16.8873C31.5924 15.642 31.0016 14.334 29.887 13.2195L28.4728 14.6337ZM14.3306 9.33037L12.9164 7.91616C10.0089 10.8236 9.72621 15.3576 12.0638 18.5843L13.6834 17.4109L15.3031 16.2375C14.1003 14.5774 14.2491 12.2403 15.7448 10.7446L14.3306 9.33037ZM30 17.4109H28L28 52.4109H30H32L32 17.4109H30ZM13.6834 17.4109L13.6834 19.4109L30 19.4109L30 17.4109L30 15.4109L13.6834 15.4109L13.6834 17.4109ZM11.25 29.9109V27.9109C10.2662 27.9109 9.36547 27.5791 8.64584 27.02L7.41881 28.5993L6.19178 30.1787C7.58841 31.2638 9.34644 31.9109 11.25 31.9109V29.9109ZM7.41881 28.5993L8.64584 27.02C7.64072 26.2391 7 25.0253 7 23.6609H5H3C3 26.3127 4.25332 28.6727 6.19178 30.1787L7.41881 28.5993ZM7.5 28.6609L8.70899 27.0677L8.6278 27.0061L7.41881 28.5993L6.20982 30.1926L6.29101 30.2542L7.5 28.6609ZM33.75 54.9109V52.9109H30V54.9109V56.9109H33.75V54.9109ZM30 54.9109V52.9109H26.25V54.9109V56.9109H30V54.9109ZM30 52.4109L28 52.4109L28 54.9109L30 54.9109H32L32 52.4109H30ZM48.75 29.9109V27.9109H30V29.9109V31.9109H48.75V29.9109ZM30 29.9109V27.9109H11.25V29.9109V31.9109H30V29.9109ZM55 23.6609H53C53 25.0984 52.2882 26.3699 51.1888 27.1421L52.3385 28.7787L53.4881 30.4153C55.6079 28.9262 57 26.4562 57 23.6609H55ZM52.3385 28.7787L51.1888 27.1421C50.499 27.6267 49.6607 27.9109 48.75 27.9109V29.9109V31.9109C50.5101 31.9109 52.1468 31.3575 53.4881 30.4153L52.3385 28.7787ZM52.5 35.2681H54.5C54.5 31.9069 54.5013 30.5748 54.331 28.6064L52.3385 28.7787L50.3459 28.9511C50.4987 30.7171 50.5 31.8725 50.5 35.2681H52.5ZM30 17.4109L30 19.4109L46.0616 19.4109L46.0616 17.4109L46.0616 15.4109L30 15.4109L30 17.4109ZM46.0616 17.4109L46.0617 19.4109L46.7088 19.4109L46.7087 17.4109L46.7086 15.4109L46.0614 15.4109L46.0616 17.4109ZM46.0616 17.4109L46.0616 19.4109L48.75 19.4109L48.75 17.4109L48.75 15.4109L46.0616 15.4109L46.0616 17.4109ZM13.6834 17.4109V15.4109H11.25V17.4109V19.4109H13.6834V17.4109ZM11.25 17.4109L11.25 19.4109L20.625 19.4109L20.625 17.4109L20.625 15.4109L11.25 15.4109L11.25 17.4109ZM20.625 17.4109L20.625 19.4109L30 19.4109L30 17.4109L30 15.4109L20.625 15.4109L20.625 17.4109ZM13.6834 17.4109L13.6834 19.4109L20.625 19.4109L20.625 17.4109L20.625 15.4109L13.6834 15.4109L13.6834 17.4109ZM30 17.4109L30 19.4109L46.7087 19.4109L46.7087 17.4109L46.7087 15.4109L30 15.4109L30 17.4109Z" fill="#5D5D5D"/>
</svg>
