<svg width="48" height="48" viewBox="0 0 48 48" fill="none" xmlns="http://www.w3.org/2000/svg">
<circle cx="24" cy="24" r="18.4" stroke="#5D5D5D" stroke-width="3.2"/>
<path d="M24 14.4004C24.8837 14.4004 25.5996 15.1163 25.5996 16V22.4004H32L32.1641 22.4082C32.9707 22.4904 33.5996 23.1717 33.5996 24C33.5996 24.8283 32.9707 25.5096 32.1641 25.5918L32 25.5996H25.5996V32C25.5996 32.8837 24.8837 33.5996 24 33.5996C23.1163 33.5996 22.4004 32.8837 22.4004 32V25.5996H16C15.1163 25.5996 14.4004 24.8837 14.4004 24C14.4004 23.1163 15.1163 22.4004 16 22.4004H22.4004V16C22.4004 15.1163 23.1163 14.4004 24 14.4004Z" fill="#5D5D5D"/>
</svg>
