<?xml version="1.0" encoding="UTF-8"?>
<svg version="1.1" xmlns="http://www.w3.org/2000/svg" width="225" height="225">
<path d="M0 0 C74.25 0 148.5 0 225 0 C225 74.25 225 148.5 225 225 C150.75 225 76.5 225 0 225 C0 150.75 0 76.5 0 0 Z " fill="#FEFEFE" transform="translate(0,0)"/>
<path d="M0 0 C0 8.91 0 17.82 0 27 C-3.96 28.98 -7.92 30.96 -12 33 C-13.65 34.32 -15.3 35.64 -17 37 C-19.71625369 37.34291942 -22.0064241 37.47072866 -24.70703125 37.390625 C-25.43242599 37.38496521 -26.15782074 37.37930542 -26.90519714 37.37347412 C-29.20832008 37.35119099 -31.50985224 37.30101487 -33.8125 37.25 C-35.37953472 37.22992434 -36.94659399 37.21167543 -38.51367188 37.1953125 C-42.34305519 37.15135337 -46.17125846 37.08238623 -50 37 C-42.16867148 20.07233062 -29.14594675 9.21328136 -12 2 C-8.00760013 0.77292416 -4.19914796 0 0 0 Z " fill="#010101" transform="translate(102,46)"/>
<path d="M0 0 C1.08809212 0.00848969 1.08809212 0.00848969 2.19816589 0.01715088 C4.50128883 0.03943401 6.80282099 0.08961013 9.10546875 0.140625 C10.67250347 0.16070066 12.23956274 0.17894957 13.80664062 0.1953125 C17.63602394 0.23927163 21.46422721 0.30823877 25.29296875 0.390625 C17.63465557 16.94431615 5.31763126 27.78873172 -11.70703125 34.390625 C-20.38173005 37.390625 -20.38173005 37.390625 -24.70703125 37.390625 C-24.70703125 28.480625 -24.70703125 19.570625 -24.70703125 10.390625 C-20.74703125 8.410625 -16.78703125 6.430625 -12.70703125 4.390625 C-7.64893093 0.34414474 -5.95023657 -0.17649207 0 0 Z " fill="#010101" transform="translate(147.70703125,141.609375)"/>
<path d="M0 0 C4.51642349 -0.1747723 9.03099011 -0.30085744 13.54980469 -0.38452148 C15.08238052 -0.41944053 16.61472808 -0.4669969 18.14648438 -0.52807617 C26.92725819 -0.86910492 33.77511307 -0.94639488 40.73095703 5.19116211 C43.54798729 7.60070281 43.54798729 7.60070281 50 10 C50 18.91 50 27.82 50 37 C37.16288119 34.6659784 37.16288119 34.6659784 30.9375 31.375 C30.25631104 31.02308594 29.57512207 30.67117187 28.87329102 30.30859375 C16.01726305 23.4609807 6.8188003 13.81335002 0 1 C0 0.67 0 0.34 0 0 Z " fill="#010101" transform="translate(52,142)"/>
<path d="M0 0 C19.14058167 3.82811633 34.84525547 12.28687645 45.8828125 28.8203125 C50 35.54186047 50 35.54186047 50 37 C45.48357651 37.1747723 40.96900989 37.30085744 36.45019531 37.38452148 C34.91761948 37.41944053 33.38527192 37.4669969 31.85351562 37.52807617 C23.07274181 37.86910492 16.22488693 37.94639488 9.26904297 31.80883789 C6.45201271 29.39929719 6.45201271 29.39929719 0 27 C0 18.09 0 9.18 0 0 Z " fill="#010101" transform="translate(123,46)"/>
<path d="M0 0 C1.20970459 0.00523682 2.41940918 0.01047363 3.66577148 0.01586914 C4.97094727 0.0190918 6.27612305 0.02231445 7.62084961 0.02563477 C9.00952213 0.03399138 10.39819401 0.04245634 11.78686523 0.05102539 C13.17944179 0.05603873 14.57202005 0.06060193 15.96459961 0.06469727 C19.38456394 0.07653105 22.80444367 0.09301659 26.22436523 0.11352539 C25.09850383 3.65194694 23.89341764 6.77542057 22.22436523 10.11352539 C12.98436523 10.11352539 3.74436523 10.11352539 -5.77563477 10.11352539 C-3.56054664 0.14562883 -3.56054664 0.14562883 0 0 Z " fill="#020202" transform="translate(51.775634765625,89.886474609375)"/>
<path d="M0 0 C9.57 0 19.14 0 29 0 C32 9 32 9 32 10 C22.76 10 13.52 10 4 10 C0 2 0 2 0 0 Z " fill="#010101" transform="translate(147,90)"/>
<path d="M0 0 C9.24 0 18.48 0 28 0 C27.01 3.3 26.02 6.6 25 10 C15.43 10 5.86 10 -4 10 C-2 4 -2 4 0 0 Z " fill="#010101" transform="translate(151,125)"/>
<path d="M0 0 C8.91 0 17.82 0 27 0 C31 8 31 8 31 10 C21.43 10 11.86 10 2 10 C0 5 0 5 0 0 Z " fill="#000000" transform="translate(47,125)"/>
<path d="M0 0 C8.91 0 17.82 0 27 0 C27 3.3 27 6.6 27 10 C18.09 10 9.18 10 0 10 C0 6.7 0 3.4 0 0 Z " fill="#070707" transform="translate(153,108)"/>
<path d="M0 0 C8.91 0 17.82 0 27 0 C27 3.3 27 6.6 27 10 C18.09 10 9.18 10 0 10 C0 6.7 0 3.4 0 0 Z " fill="#070707" transform="translate(45,108)"/>
</svg>
